<svg xmlns="http://www.w3.org/2000/svg" version="1.1" xmlns:xlink="http://www.w3.org/1999/xlink" width="512" height="512" x="0" y="0" viewBox="0 0 520.248 520.248" style="enable-background:new 0 0 512 512" xml:space="preserve" class=""><g><path d="m284.949 260.802 6.038 18.582h19.538c25.286 0 35.8 32.357 15.343 47.22l-15.807 11.484 6.038 18.582c7.814 24.049-19.711 44.047-40.168 29.184l-15.807-11.484-15.807 11.484c-20.457 14.863-47.982-5.135-40.168-29.184l6.038-18.582-15.807-11.484c-20.457-14.863-9.944-47.22 15.343-47.22h19.538l6.038-18.582c7.814-24.049 41.836-24.049 49.65 0z" style="stroke-width:30;stroke-miterlimit:10;" fill="none" stroke="#aba6a6" stroke-width="30" stroke-miterlimit="10" data-original="#000000" class="" opacity="1"></path><path d="M219.486 279.39c-12.858-18.114-19.892-39.24-19.892-61.081 0-33.866 16.91-66.013 46.224-87.877l14.305-10.669 14.305 10.669c29.315 21.864 46.224 54.011 46.224 87.877 0 8.029-.951 15.962-2.792 23.684" style="stroke-width:30;stroke-miterlimit:10;" fill="none" stroke="#aba6a6" stroke-width="30" stroke-miterlimit="10" data-original="#000000" class="" opacity="1"></path><path d="M289.901 263.627c13.685-14.74 30.882-25.306 50.14-30.369 32.753-8.611 68.143-.431 96.742 22.362l13.956 11.122-6.681 16.547c-13.692 33.911-40.482 58.438-73.236 67.049a101.789 101.789 0 0 1-15.603 2.824M321.164 329.327c17.709 8.48 32.621 21.364 43.14 37.744 18.299 28.497 21.44 64.683 8.586 98.921l-6.272 16.707-17.802-1.248c-36.481-2.558-68.079-20.471-86.378-48.968M164.814 355.311a101.785 101.785 0 0 0-8.813 11.76c-18.299 28.497-21.44 64.683-8.586 98.921l6.272 16.707 17.802-1.248c36.481-2.558 68.079-20.471 86.378-48.968 9.149-14.248 14.509-30.419 15.975-47.308M202.403 241.98c-7-3.744-14.43-6.68-22.196-8.722-32.753-8.611-68.143-.431-96.742 22.362L69.51 266.742l6.681 16.547c13.692 33.911 40.482 58.438 73.236 67.049 18.97 4.987 38.824 4.342 57.732-1.513" style="stroke-width:30;stroke-miterlimit:10;" fill="none" stroke="#aba6a6" stroke-width="30" stroke-miterlimit="10" data-original="#000000" class="" opacity="1"></path><path d="m114.336 333.444-93.123 93.124 42.427 42.426 82.739-82.739M405.912 333.445l93.122 93.123-42.426 42.426-83.572-83.572M319.989 217.644 456.357 81.277c12.693-12.693 33.272-12.693 45.966 0l2.005 2.005" style="stroke-width:30;stroke-miterlimit:10;" fill="none" stroke="#aba6a6" stroke-width="30" stroke-miterlimit="10" data-original="#000000" class="" opacity="1"></path><path d="m504.327 83.282-31.675-31.675c-19.738-19.738-51.74-19.738-71.479 0L298.462 154.319M200.259 217.644 63.891 81.277c-12.693-12.693-33.272-12.693-45.966 0l-2.005 2.005" style="stroke-width:30;stroke-miterlimit:10;" fill="none" stroke="#aba6a6" stroke-width="30" stroke-miterlimit="10" data-original="#000000" class="" opacity="1"></path><path d="m15.921 83.282 31.675-31.675c19.738-19.738 51.74-19.738 71.479 0l103.368 103.368" style="stroke-width:30;stroke-miterlimit:10;" fill="none" stroke="#aba6a6" stroke-width="30" stroke-miterlimit="10" data-original="#000000" class="" opacity="1"></path></g></svg>