<?xml version="1.0" encoding="UTF-8"?>
<svg width="67px" height="67px" viewBox="0 0 67 67" version="1.1" xmlns="http://www.w3.org/2000/svg" xmlns:xlink="http://www.w3.org/1999/xlink">
    <!-- Generator: Sketch 43.2 (39069) - http://www.bohemiancoding.com/sketch -->
    <title>noun_648858</title>
    <desc>Created with Sketch.</desc>
    <defs></defs>
    <g id="Version-2" stroke="none" stroke-width="1" fill="none" fill-rule="evenodd" opacity="0.3">
        <g id="Wood-Ed---Milling-video" transform="translate(-354.000000, -417.000000)" fill="#FFFFFF">
            <g id="Group-5">
                <g id="noun_648858" transform="translate(354.000000, 417.000000)">
                    <g id="Artboard-45">
                        <path d="M33.5,5.8625 C48.7637698,5.8625 61.1375,18.2362302 61.1375,33.5 C61.1375,48.7637698 48.7637698,61.1375 33.5,61.1375 C18.2362302,61.1375 5.8625,48.7637698 5.8625,33.5 C5.88556007,18.2457922 18.2457922,5.88556007 33.5,5.8625 L33.5,5.8625 Z M33.5,0 C14.9984609,-1.13289253e-15 2.26578507e-15,14.9984609 0,33.5 C-2.26578507e-15,52.0015391 14.9984609,67 33.5,67 C52.0015391,67 67,52.0015391 67,33.5 C67,24.6152476 63.4705458,16.0943915 57.1880772,9.81192283 C50.9056085,3.52945415 42.3847524,5.4403418e-16 33.5,0 Z" id="Shape"></path>
                        <path d="M44.178125,34.42125 L27.9725,43.759375 C27.6477041,43.9370898 27.2531954,43.930032 26.934964,43.7408133 C26.6167327,43.5515947 26.4221129,43.2083599 26.423125,42.838125 L26.423125,24.12 C26.4131432,23.7368092 26.6133867,23.3788036 26.9451227,23.1867459 C27.2768586,22.9946883 27.6870345,22.9992932 28.014375,23.19875 L44.22,32.57875 C44.5545913,32.7690728 44.7577447,33.127664 44.7489984,33.5124985 C44.7402522,33.8973331 44.5210174,34.2463245 44.178125,34.42125 Z" id="Shape"></path>
                    </g>
                </g>
            </g>
        </g>
    </g>
</svg>